<svg width="15" height="15" viewBox="0 0 15 15" fill="none" xmlns="http://www.w3.org/2000/svg">
<mask id="path-1-outside-1_7_4624" maskUnits="userSpaceOnUse" x="0" y="0" width="15" height="15" fill="black">
<rect fill="white" width="15" height="15"/>
<path d="M10.5846 1C10.752 1 10.8902 1.11831 10.9122 1.27189L10.9152 1.31452V2.04847H13.2287C13.6333 2.04847 13.9653 2.34493 13.9974 2.7221L14 2.7823V13.266C14 13.6511 13.6883 13.9669 13.292 13.9975L13.2287 14H1.77128C1.36667 14 1.03474 13.7034 1.00258 13.3262L1 13.266V2.7823C1 2.39727 1.31166 2.08153 1.70802 2.0508L1.77128 2.04847H4.08485V1.31452C4.08485 1.1408 4.2328 1 4.41536 1C4.58268 1 4.72095 1.11831 4.74276 1.27188L4.74586 1.31452V2.04847H10.2541V1.31452C10.2541 1.1408 10.4021 1 10.5846 1V1ZM13.339 5.613H1.66076V13.2661C1.66076 13.3058 1.684 13.3404 1.71821 13.3582L1.74571 13.3682L1.77101 13.371H13.2285C13.2806 13.371 13.3244 13.3365 13.3357 13.2902L13.3387 13.2661L13.339 5.613ZM4.63534 10.0162C4.92053 10.0162 5.15513 10.2225 5.18339 10.4868L5.18623 10.5405V11.7985C5.18623 12.0699 4.96946 12.2931 4.69176 12.3199L4.63534 12.3226H3.3133C3.02811 12.3226 2.79351 12.1163 2.76538 11.8521L2.76254 11.7985V10.5404C2.76254 10.2691 2.97931 10.0458 3.25702 10.0189L3.31331 10.0162L4.63534 10.0162ZM8.16089 10.0162C8.44608 10.0162 8.68068 10.2225 8.70894 10.4868L8.71178 10.5405V11.7985C8.71178 12.0699 8.49501 12.2931 8.21717 12.3199L8.16088 12.3226H6.83884C6.55365 12.3226 6.31905 12.1163 6.29079 11.8521L6.28795 11.7985V10.5404C6.28795 10.2691 6.50472 10.0458 6.78256 10.0189L6.83885 10.0162L8.16089 10.0162ZM4.52528 10.6452H3.42363V11.6936H4.52528V10.6452ZM8.05083 10.6452H6.94904V11.6936H8.05083V10.6452ZM4.63534 6.66128C4.92053 6.66128 5.15513 6.86756 5.18339 7.13195L5.18623 7.18552V8.44358C5.18623 8.71497 4.96946 8.93822 4.69176 8.96511L4.63534 8.96781H3.3133C3.02811 8.96781 2.79351 8.76153 2.76538 8.49714L2.76254 8.44357V7.18551C2.76254 6.91412 2.97931 6.69087 3.25702 6.66398L3.31331 6.66128H4.63534ZM8.16089 6.66128C8.44608 6.66128 8.68068 6.86756 8.70894 7.13195L8.71178 7.18552V8.44358C8.71178 8.71497 8.49501 8.93822 8.21717 8.96511L8.16088 8.96781H6.83884C6.55365 8.96781 6.31905 8.76153 6.29079 8.49714L6.28795 8.44357V7.18551C6.28795 6.91412 6.50472 6.69087 6.78256 6.66398L6.83885 6.66128H8.16089ZM11.6864 6.66128C11.9716 6.66128 12.2062 6.86756 12.2343 7.13195L12.2372 7.18552V8.44358C12.2372 8.71497 12.0204 8.93822 11.7427 8.96511L11.6864 8.96781H10.3644C10.0792 8.96781 9.84459 8.76153 9.81633 8.49714L9.81349 8.44357V7.18551C9.81349 6.91412 10.0303 6.69087 10.308 6.66398L10.3644 6.66128H11.6864ZM4.52528 7.29031H3.42363V8.33878H4.52528V7.29031ZM8.05083 7.29031H6.94904V8.33878H8.05083V7.29031ZM11.576 7.29031H10.4744V8.33878H11.576V7.29031ZM4.08471 2.67763H1.77115C1.71899 2.67763 1.67522 2.71203 1.66386 2.75835L1.66089 2.78243V4.98403H13.3391V2.78243C13.3391 2.74274 13.3159 2.70822 13.2817 2.6904L13.2542 2.68033L13.2289 2.67763H10.9153V3.41145C10.9153 3.58517 10.7673 3.72597 10.5848 3.72597C10.4175 3.72597 10.2792 3.60766 10.2574 3.45409L10.2543 3.41145V2.67763H4.746V3.41145C4.746 3.58517 4.59805 3.72597 4.41549 3.72597C4.24817 3.72597 4.1099 3.60766 4.08795 3.45409L4.08498 3.41145L4.08471 2.67763Z"/>
</mask>
<path d="M10.5846 1C10.752 1 10.8902 1.11831 10.9122 1.27189L10.9152 1.31452V2.04847H13.2287C13.6333 2.04847 13.9653 2.34493 13.9974 2.7221L14 2.7823V13.266C14 13.6511 13.6883 13.9669 13.292 13.9975L13.2287 14H1.77128C1.36667 14 1.03474 13.7034 1.00258 13.3262L1 13.266V2.7823C1 2.39727 1.31166 2.08153 1.70802 2.0508L1.77128 2.04847H4.08485V1.31452C4.08485 1.1408 4.2328 1 4.41536 1C4.58268 1 4.72095 1.11831 4.74276 1.27188L4.74586 1.31452V2.04847H10.2541V1.31452C10.2541 1.1408 10.4021 1 10.5846 1V1ZM13.339 5.613H1.66076V13.2661C1.66076 13.3058 1.684 13.3404 1.71821 13.3582L1.74571 13.3682L1.77101 13.371H13.2285C13.2806 13.371 13.3244 13.3365 13.3357 13.2902L13.3387 13.2661L13.339 5.613ZM4.63534 10.0162C4.92053 10.0162 5.15513 10.2225 5.18339 10.4868L5.18623 10.5405V11.7985C5.18623 12.0699 4.96946 12.2931 4.69176 12.3199L4.63534 12.3226H3.3133C3.02811 12.3226 2.79351 12.1163 2.76538 11.8521L2.76254 11.7985V10.5404C2.76254 10.2691 2.97931 10.0458 3.25702 10.0189L3.31331 10.0162L4.63534 10.0162ZM8.16089 10.0162C8.44608 10.0162 8.68068 10.2225 8.70894 10.4868L8.71178 10.5405V11.7985C8.71178 12.0699 8.49501 12.2931 8.21717 12.3199L8.16088 12.3226H6.83884C6.55365 12.3226 6.31905 12.1163 6.29079 11.8521L6.28795 11.7985V10.5404C6.28795 10.2691 6.50472 10.0458 6.78256 10.0189L6.83885 10.0162L8.16089 10.0162ZM4.52528 10.6452H3.42363V11.6936H4.52528V10.6452ZM8.05083 10.6452H6.94904V11.6936H8.05083V10.6452ZM4.63534 6.66128C4.92053 6.66128 5.15513 6.86756 5.18339 7.13195L5.18623 7.18552V8.44358C5.18623 8.71497 4.96946 8.93822 4.69176 8.96511L4.63534 8.96781H3.3133C3.02811 8.96781 2.79351 8.76153 2.76538 8.49714L2.76254 8.44357V7.18551C2.76254 6.91412 2.97931 6.69087 3.25702 6.66398L3.31331 6.66128H4.63534ZM8.16089 6.66128C8.44608 6.66128 8.68068 6.86756 8.70894 7.13195L8.71178 7.18552V8.44358C8.71178 8.71497 8.49501 8.93822 8.21717 8.96511L8.16088 8.96781H6.83884C6.55365 8.96781 6.31905 8.76153 6.29079 8.49714L6.28795 8.44357V7.18551C6.28795 6.91412 6.50472 6.69087 6.78256 6.66398L6.83885 6.66128H8.16089ZM11.6864 6.66128C11.9716 6.66128 12.2062 6.86756 12.2343 7.13195L12.2372 7.18552V8.44358C12.2372 8.71497 12.0204 8.93822 11.7427 8.96511L11.6864 8.96781H10.3644C10.0792 8.96781 9.84459 8.76153 9.81633 8.49714L9.81349 8.44357V7.18551C9.81349 6.91412 10.0303 6.69087 10.308 6.66398L10.3644 6.66128H11.6864ZM4.52528 7.29031H3.42363V8.33878H4.52528V7.29031ZM8.05083 7.29031H6.94904V8.33878H8.05083V7.29031ZM11.576 7.29031H10.4744V8.33878H11.576V7.29031ZM4.08471 2.67763H1.77115C1.71899 2.67763 1.67522 2.71203 1.66386 2.75835L1.66089 2.78243V4.98403H13.3391V2.78243C13.3391 2.74274 13.3159 2.70822 13.2817 2.6904L13.2542 2.68033L13.2289 2.67763H10.9153V3.41145C10.9153 3.58517 10.7673 3.72597 10.5848 3.72597C10.4175 3.72597 10.2792 3.60766 10.2574 3.45409L10.2543 3.41145V2.67763H4.746V3.41145C4.746 3.58517 4.59805 3.72597 4.41549 3.72597C4.24817 3.72597 4.1099 3.60766 4.08795 3.45409L4.08498 3.41145L4.08471 2.67763Z" fill="#202224"/>
<path d="M10.5846 1C10.752 1 10.8902 1.11831 10.9122 1.27189L10.9152 1.31452V2.04847H13.2287C13.6333 2.04847 13.9653 2.34493 13.9974 2.7221L14 2.7823V13.266C14 13.6511 13.6883 13.9669 13.292 13.9975L13.2287 14H1.77128C1.36667 14 1.03474 13.7034 1.00258 13.3262L1 13.266V2.7823C1 2.39727 1.31166 2.08153 1.70802 2.0508L1.77128 2.04847H4.08485V1.31452C4.08485 1.1408 4.2328 1 4.41536 1C4.58268 1 4.72095 1.11831 4.74276 1.27188L4.74586 1.31452V2.04847H10.2541V1.31452C10.2541 1.1408 10.4021 1 10.5846 1V1ZM13.339 5.613H1.66076V13.2661C1.66076 13.3058 1.684 13.3404 1.71821 13.3582L1.74571 13.3682L1.77101 13.371H13.2285C13.2806 13.371 13.3244 13.3365 13.3357 13.2902L13.3387 13.2661L13.339 5.613ZM4.63534 10.0162C4.92053 10.0162 5.15513 10.2225 5.18339 10.4868L5.18623 10.5405V11.7985C5.18623 12.0699 4.96946 12.2931 4.69176 12.3199L4.63534 12.3226H3.3133C3.02811 12.3226 2.79351 12.1163 2.76538 11.8521L2.76254 11.7985V10.5404C2.76254 10.2691 2.97931 10.0458 3.25702 10.0189L3.31331 10.0162L4.63534 10.0162ZM8.16089 10.0162C8.44608 10.0162 8.68068 10.2225 8.70894 10.4868L8.71178 10.5405V11.7985C8.71178 12.0699 8.49501 12.2931 8.21717 12.3199L8.16088 12.3226H6.83884C6.55365 12.3226 6.31905 12.1163 6.29079 11.8521L6.28795 11.7985V10.5404C6.28795 10.2691 6.50472 10.0458 6.78256 10.0189L6.83885 10.0162L8.16089 10.0162ZM4.52528 10.6452H3.42363V11.6936H4.52528V10.6452ZM8.05083 10.6452H6.94904V11.6936H8.05083V10.6452ZM4.63534 6.66128C4.92053 6.66128 5.15513 6.86756 5.18339 7.13195L5.18623 7.18552V8.44358C5.18623 8.71497 4.96946 8.93822 4.69176 8.96511L4.63534 8.96781H3.3133C3.02811 8.96781 2.79351 8.76153 2.76538 8.49714L2.76254 8.44357V7.18551C2.76254 6.91412 2.97931 6.69087 3.25702 6.66398L3.31331 6.66128H4.63534ZM8.16089 6.66128C8.44608 6.66128 8.68068 6.86756 8.70894 7.13195L8.71178 7.18552V8.44358C8.71178 8.71497 8.49501 8.93822 8.21717 8.96511L8.16088 8.96781H6.83884C6.55365 8.96781 6.31905 8.76153 6.29079 8.49714L6.28795 8.44357V7.18551C6.28795 6.91412 6.50472 6.69087 6.78256 6.66398L6.83885 6.66128H8.16089ZM11.6864 6.66128C11.9716 6.66128 12.2062 6.86756 12.2343 7.13195L12.2372 7.18552V8.44358C12.2372 8.71497 12.0204 8.93822 11.7427 8.96511L11.6864 8.96781H10.3644C10.0792 8.96781 9.84459 8.76153 9.81633 8.49714L9.81349 8.44357V7.18551C9.81349 6.91412 10.0303 6.69087 10.308 6.66398L10.3644 6.66128H11.6864ZM4.52528 7.29031H3.42363V8.33878H4.52528V7.29031ZM8.05083 7.29031H6.94904V8.33878H8.05083V7.29031ZM11.576 7.29031H10.4744V8.33878H11.576V7.29031ZM4.08471 2.67763H1.77115C1.71899 2.67763 1.67522 2.71203 1.66386 2.75835L1.66089 2.78243V4.98403H13.3391V2.78243C13.3391 2.74274 13.3159 2.70822 13.2817 2.6904L13.2542 2.68033L13.2289 2.67763H10.9153V3.41145C10.9153 3.58517 10.7673 3.72597 10.5848 3.72597C10.4175 3.72597 10.2792 3.60766 10.2574 3.45409L10.2543 3.41145V2.67763H4.746V3.41145C4.746 3.58517 4.59805 3.72597 4.41549 3.72597C4.24817 3.72597 4.1099 3.60766 4.08795 3.45409L4.08498 3.41145L4.08471 2.67763Z" stroke="#202224" stroke-width="0.6" mask="url(#path-1-outside-1_7_4624)"/>
</svg>
