<svg width="23" height="19" viewBox="0 0 23 19" fill="none" xmlns="http://www.w3.org/2000/svg">
<path d="M11.0013 5.87378C10.8727 6.14911 10.994 6.47538 11.2689 6.60365L11.2691 6.60376L15.1874 8.40834L11.4999 10.1133L2.8127 6.10816L11.5 2.10321L20.1872 6.10814L16.5001 7.80653L11.7311 5.60619C11.7311 5.60617 11.731 5.60614 11.731 5.60611C11.4557 5.47767 11.1295 5.59898 11.0013 5.87378ZM11.0013 5.87378L11.0466 5.89494L11.0013 5.87379C11.0013 5.87379 11.0013 5.87379 11.0013 5.87378ZM0.95 6.10854C0.95 6.32085 1.07422 6.51911 1.26918 6.60743C1.26923 6.60745 1.26928 6.60748 1.26933 6.6075L4.40339 8.05072V11.612C4.40339 12.056 4.69804 12.411 5.16053 12.692C5.62358 12.9734 6.26527 13.1875 6.98462 13.3484C8.42416 13.6704 10.1898 13.7821 11.4999 13.7821C12.7902 13.7821 14.523 13.6751 15.9501 13.3644V15.1479C15.3887 15.3699 14.9868 15.9127 14.9868 16.5524C14.9868 17.3866 15.6658 18.0658 16.5003 18.0658C17.3345 18.0658 18.0137 17.3868 18.0137 16.5524C18.0137 15.9128 17.6121 15.3666 17.0504 15.1477V13.0576C17.4987 12.8972 17.8797 12.7034 18.1513 12.4701C18.4304 12.2304 18.5971 11.946 18.5971 11.6122L18.5966 8.05371L21.731 6.61036L21.7314 6.61018C21.9253 6.51882 22.05 6.32466 22.05 6.11153C22.05 5.89967 21.9262 5.69828 21.7311 5.60975L21.7311 5.60972L11.731 0.999585L11.731 0.999583L11.7306 0.9994C11.5843 0.933533 11.4159 0.933533 11.2696 0.9994L11.2696 0.999398L11.2692 0.999585L1.26902 5.60972L1.26864 5.60989C1.07469 5.70125 0.95 5.89541 0.95 6.10854ZM5.63652 11.7298C5.56167 11.6791 5.52019 11.6361 5.50298 11.6037V8.55962L11.269 11.2204L11.2694 11.2206C11.3418 11.2531 11.4188 11.2717 11.4999 11.2717C11.581 11.2717 11.6579 11.2531 11.7303 11.2206L11.7308 11.2204L15.9498 9.27297V12.2323C14.9155 12.4836 13.4066 12.6849 11.5001 12.685V12.6849C9.66988 12.6849 8.20193 12.4994 7.17262 12.2674C6.65781 12.1514 6.25379 12.0239 5.96946 11.9028C5.82719 11.8422 5.71615 11.7837 5.63652 11.7298ZM16.5002 16.9684C16.2711 16.9684 16.0868 16.7841 16.0868 16.555C16.0868 16.3261 16.2741 16.1416 16.5002 16.1416C16.726 16.1416 16.9136 16.3292 16.9136 16.555C16.9136 16.781 16.729 16.9684 16.5002 16.9684ZM17.497 8.55976L17.5002 11.581C17.4815 11.6186 17.4346 11.667 17.35 11.7234C17.2746 11.7737 17.1744 11.827 17.0503 11.8822V8.76688L17.497 8.55976Z" fill="#202224" stroke="#202224" stroke-width="0.1"/>
</svg>
