<svg width="16" height="16" viewBox="0 0 16 16" fill="none" xmlns="http://www.w3.org/2000/svg">
<path fill-rule="evenodd" clip-rule="evenodd" d="M3.93848 7.63079V8.36929C3.93848 8.50511 4.04871 8.61535 4.18453 8.61535H7.26145C7.32945 8.61535 7.38456 8.67046 7.38456 8.73846V11.8154C7.38456 11.9514 7.4948 12.0616 7.63079 12.0616H8.36929C8.50511 12.0616 8.61535 11.9514 8.61535 11.8154V8.73846C8.61535 8.67046 8.67046 8.61535 8.73846 8.61535H11.8154C11.9514 8.61535 12.0616 8.50511 12.0616 8.36929V7.63079C12.0616 7.4948 11.9514 7.38456 11.8154 7.38456H8.73846C8.67046 7.38456 8.61535 7.32945 8.61535 7.26145V4.18453C8.61535 4.04871 8.50511 3.93848 8.36929 3.93848H7.63079C7.4948 3.93848 7.38456 4.04871 7.38456 4.18453V7.26145C7.38456 7.32945 7.32945 7.38456 7.26145 7.38456H4.18453C4.04871 7.38456 3.93848 7.4948 3.93848 7.63079Z" fill="#202224"/>
<path d="M8 14.7692C11.7385 14.7692 14.7692 11.7385 14.7692 8C14.7692 4.2615 11.7385 1.23077 8 1.23077C4.2615 1.23077 1.23077 4.2615 1.23077 8C1.23077 11.7385 4.2615 14.7692 8 14.7692ZM8 16C3.58154 16 0 12.4183 0 8C0 3.58172 3.58172 0 8 0C12.4183 0 16 3.58172 16 8C16 12.4183 12.4183 16 8 16Z" fill="#202224"/>
</svg>
